<?xml version="1.0" encoding="utf-8"?>
<!-- Generator: Adobe Illustrator 19.2.1, SVG Export Plug-In . SVG Version: 6.00 Build 0)  -->
<svg version="1.1" id="Layer_1" xmlns="http://www.w3.org/2000/svg" xmlns:xlink="http://www.w3.org/1999/xlink" x="0px" y="0px"
	 viewBox="0 0 271 231" style="enable-background:new 0 0 271 231;" xml:space="preserve">
<style type="text/css">
	.st0{fill:none;stroke:#316745;stroke-linecap:square;}
</style>
<line class="st0" x1="0.5" y1="10.5" x2="10.5" y2="10.5"/>
<line class="st0" x1="20.5" y1="0.5" x2="20.5" y2="10.5"/>
<line class="st0" x1="20.5" y1="10.5" x2="30.5" y2="10.5"/>
<line class="st0" x1="40.5" y1="0.5" x2="40.5" y2="10.5"/>
<line class="st0" x1="30.5" y1="10.5" x2="40.5" y2="10.5"/>
<line class="st0" x1="60.5" y1="0.5" x2="60.5" y2="10.5"/>
<line class="st0" x1="50.5" y1="10.5" x2="60.5" y2="10.5"/>
<line class="st0" x1="60.5" y1="10.5" x2="70.5" y2="10.5"/>
<line class="st0" x1="80.5" y1="0.5" x2="80.5" y2="10.5"/>
<line class="st0" x1="80.5" y1="10.5" x2="90.5" y2="10.5"/>
<line class="st0" x1="90.5" y1="10.5" x2="100.5" y2="10.5"/>
<line class="st0" x1="110.5" y1="0.5" x2="110.5" y2="10.5"/>
<line class="st0" x1="110.5" y1="10.5" x2="120.5" y2="10.5"/>
<line class="st0" x1="120.5" y1="10.5" x2="130.5" y2="10.5"/>
<line class="st0" x1="140.5" y1="0.5" x2="140.5" y2="10.5"/>
<line class="st0" x1="130.5" y1="10.5" x2="140.5" y2="10.5"/>
<line class="st0" x1="150.5" y1="0.5" x2="150.5" y2="10.5"/>
<line class="st0" x1="170.5" y1="0.5" x2="170.5" y2="10.5"/>
<line class="st0" x1="180.5" y1="0.5" x2="180.5" y2="10.5"/>
<line class="st0" x1="190.5" y1="0.5" x2="190.5" y2="10.5"/>
<line class="st0" x1="190.5" y1="10.5" x2="200.5" y2="10.5"/>
<line class="st0" x1="210.5" y1="10.5" x2="220.5" y2="10.5"/>
<line class="st0" x1="220.5" y1="10.5" x2="230.5" y2="10.5"/>
<line class="st0" x1="230.5" y1="10.5" x2="240.5" y2="10.5"/>
<line class="st0" x1="250.5" y1="0.5" x2="250.5" y2="10.5"/>
<line class="st0" x1="250.5" y1="10.5" x2="260.5" y2="10.5"/>
<line class="st0" x1="270.5" y1="0.5" x2="270.5" y2="10.5"/>
<line class="st0" x1="10.5" y1="10.5" x2="10.5" y2="20.5"/>
<line class="st0" x1="30.5" y1="10.5" x2="30.5" y2="20.5"/>
<line class="st0" x1="30.5" y1="20.5" x2="40.5" y2="20.5"/>
<line class="st0" x1="50.5" y1="10.5" x2="50.5" y2="20.5"/>
<line class="st0" x1="40.5" y1="20.5" x2="50.5" y2="20.5"/>
<line class="st0" x1="70.5" y1="20.5" x2="80.5" y2="20.5"/>
<line class="st0" x1="90.5" y1="10.5" x2="90.5" y2="20.5"/>
<line class="st0" x1="110.5" y1="10.5" x2="110.5" y2="20.5"/>
<line class="st0" x1="100.5" y1="20.5" x2="110.5" y2="20.5"/>
<line class="st0" x1="120.5" y1="20.5" x2="130.5" y2="20.5"/>
<line class="st0" x1="140.5" y1="10.5" x2="140.5" y2="20.5"/>
<line class="st0" x1="150.5" y1="10.5" x2="150.5" y2="20.5"/>
<line class="st0" x1="160.5" y1="10.5" x2="160.5" y2="20.5"/>
<line class="st0" x1="160.5" y1="20.5" x2="170.5" y2="20.5"/>
<line class="st0" x1="180.5" y1="10.5" x2="180.5" y2="20.5"/>
<line class="st0" x1="170.5" y1="20.5" x2="180.5" y2="20.5"/>
<line class="st0" x1="180.5" y1="20.5" x2="190.5" y2="20.5"/>
<line class="st0" x1="200.5" y1="10.5" x2="200.5" y2="20.5"/>
<line class="st0" x1="210.5" y1="10.5" x2="210.5" y2="20.5"/>
<line class="st0" x1="220.5" y1="20.5" x2="230.5" y2="20.5"/>
<line class="st0" x1="240.5" y1="10.5" x2="240.5" y2="20.5"/>
<line class="st0" x1="240.5" y1="20.5" x2="250.5" y2="20.5"/>
<line class="st0" x1="260.5" y1="10.5" x2="260.5" y2="20.5"/>
<line class="st0" x1="260.5" y1="20.5" x2="270.5" y2="20.5"/>
<line class="st0" x1="10.5" y1="20.5" x2="10.5" y2="30.5"/>
<line class="st0" x1="20.5" y1="20.5" x2="20.5" y2="30.5"/>
<line class="st0" x1="10.5" y1="30.5" x2="20.5" y2="30.5"/>
<line class="st0" x1="30.5" y1="20.5" x2="30.5" y2="30.5"/>
<line class="st0" x1="40.5" y1="30.5" x2="50.5" y2="30.5"/>
<line class="st0" x1="60.5" y1="20.5" x2="60.5" y2="30.5"/>
<line class="st0" x1="50.5" y1="30.5" x2="60.5" y2="30.5"/>
<line class="st0" x1="60.5" y1="30.5" x2="70.5" y2="30.5"/>
<line class="st0" x1="80.5" y1="20.5" x2="80.5" y2="30.5"/>
<line class="st0" x1="90.5" y1="20.5" x2="90.5" y2="30.5"/>
<line class="st0" x1="80.5" y1="30.5" x2="90.5" y2="30.5"/>
<line class="st0" x1="90.5" y1="30.5" x2="100.5" y2="30.5"/>
<line class="st0" x1="100.5" y1="30.5" x2="110.5" y2="30.5"/>
<line class="st0" x1="120.5" y1="20.5" x2="120.5" y2="30.5"/>
<line class="st0" x1="110.5" y1="30.5" x2="120.5" y2="30.5"/>
<line class="st0" x1="130.5" y1="20.5" x2="130.5" y2="30.5"/>
<line class="st0" x1="130.5" y1="30.5" x2="140.5" y2="30.5"/>
<line class="st0" x1="150.5" y1="20.5" x2="150.5" y2="30.5"/>
<line class="st0" x1="140.5" y1="30.5" x2="150.5" y2="30.5"/>
<line class="st0" x1="160.5" y1="20.5" x2="160.5" y2="30.5"/>
<line class="st0" x1="160.5" y1="30.5" x2="170.5" y2="30.5"/>
<line class="st0" x1="190.5" y1="20.5" x2="190.5" y2="30.5"/>
<line class="st0" x1="180.5" y1="30.5" x2="190.5" y2="30.5"/>
<line class="st0" x1="200.5" y1="20.5" x2="200.5" y2="30.5"/>
<line class="st0" x1="210.5" y1="20.5" x2="210.5" y2="30.5"/>
<line class="st0" x1="220.5" y1="20.5" x2="220.5" y2="30.5"/>
<line class="st0" x1="240.5" y1="20.5" x2="240.5" y2="30.5"/>
<line class="st0" x1="230.5" y1="30.5" x2="240.5" y2="30.5"/>
<line class="st0" x1="260.5" y1="20.5" x2="260.5" y2="30.5"/>
<line class="st0" x1="250.5" y1="30.5" x2="260.5" y2="30.5"/>
<line class="st0" x1="270.5" y1="20.5" x2="270.5" y2="30.5"/>
<line class="st0" x1="0.5" y1="40.5" x2="10.5" y2="40.5"/>
<line class="st0" x1="20.5" y1="30.5" x2="20.5" y2="40.5"/>
<line class="st0" x1="20.5" y1="40.5" x2="30.5" y2="40.5"/>
<line class="st0" x1="40.5" y1="30.5" x2="40.5" y2="40.5"/>
<line class="st0" x1="30.5" y1="40.5" x2="40.5" y2="40.5"/>
<line class="st0" x1="60.5" y1="40.5" x2="70.5" y2="40.5"/>
<line class="st0" x1="80.5" y1="30.5" x2="80.5" y2="40.5"/>
<line class="st0" x1="70.5" y1="40.5" x2="80.5" y2="40.5"/>
<line class="st0" x1="110.5" y1="30.5" x2="110.5" y2="40.5"/>
<line class="st0" x1="100.5" y1="40.5" x2="110.5" y2="40.5"/>
<line class="st0" x1="120.5" y1="40.5" x2="130.5" y2="40.5"/>
<line class="st0" x1="150.5" y1="30.5" x2="150.5" y2="40.5"/>
<line class="st0" x1="140.5" y1="40.5" x2="150.5" y2="40.5"/>
<line class="st0" x1="150.5" y1="40.5" x2="160.5" y2="40.5"/>
<line class="st0" x1="160.5" y1="40.5" x2="170.5" y2="40.5"/>
<line class="st0" x1="180.5" y1="30.5" x2="180.5" y2="40.5"/>
<line class="st0" x1="200.5" y1="30.5" x2="200.5" y2="40.5"/>
<line class="st0" x1="190.5" y1="40.5" x2="200.5" y2="40.5"/>
<line class="st0" x1="210.5" y1="30.5" x2="210.5" y2="40.5"/>
<line class="st0" x1="200.5" y1="40.5" x2="210.5" y2="40.5"/>
<line class="st0" x1="220.5" y1="30.5" x2="220.5" y2="40.5"/>
<line class="st0" x1="230.5" y1="30.5" x2="230.5" y2="40.5"/>
<line class="st0" x1="240.5" y1="40.5" x2="250.5" y2="40.5"/>
<line class="st0" x1="250.5" y1="40.5" x2="260.5" y2="40.5"/>
<line class="st0" x1="270.5" y1="30.5" x2="270.5" y2="40.5"/>
<line class="st0" x1="260.5" y1="40.5" x2="270.5" y2="40.5"/>
<line class="st0" x1="10.5" y1="40.5" x2="10.5" y2="50.5"/>
<line class="st0" x1="20.5" y1="40.5" x2="20.5" y2="50.5"/>
<line class="st0" x1="30.5" y1="50.5" x2="40.5" y2="50.5"/>
<line class="st0" x1="50.5" y1="40.5" x2="50.5" y2="50.5"/>
<line class="st0" x1="40.5" y1="50.5" x2="50.5" y2="50.5"/>
<line class="st0" x1="60.5" y1="40.5" x2="60.5" y2="50.5"/>
<line class="st0" x1="50.5" y1="50.5" x2="60.5" y2="50.5"/>
<line class="st0" x1="70.5" y1="50.5" x2="80.5" y2="50.5"/>
<line class="st0" x1="90.5" y1="40.5" x2="90.5" y2="50.5"/>
<line class="st0" x1="80.5" y1="50.5" x2="90.5" y2="50.5"/>
<line class="st0" x1="90.5" y1="50.5" x2="100.5" y2="50.5"/>
<line class="st0" x1="100.5" y1="50.5" x2="110.5" y2="50.5"/>
<line class="st0" x1="120.5" y1="40.5" x2="120.5" y2="50.5"/>
<line class="st0" x1="110.5" y1="50.5" x2="120.5" y2="50.5"/>
<line class="st0" x1="130.5" y1="40.5" x2="130.5" y2="50.5"/>
<line class="st0" x1="130.5" y1="50.5" x2="140.5" y2="50.5"/>
<line class="st0" x1="140.5" y1="50.5" x2="150.5" y2="50.5"/>
<line class="st0" x1="160.5" y1="40.5" x2="160.5" y2="50.5"/>
<line class="st0" x1="180.5" y1="40.5" x2="180.5" y2="50.5"/>
<line class="st0" x1="170.5" y1="50.5" x2="180.5" y2="50.5"/>
<line class="st0" x1="180.5" y1="50.5" x2="190.5" y2="50.5"/>
<line class="st0" x1="200.5" y1="40.5" x2="200.5" y2="50.5"/>
<line class="st0" x1="220.5" y1="40.5" x2="220.5" y2="50.5"/>
<line class="st0" x1="210.5" y1="50.5" x2="220.5" y2="50.5"/>
<line class="st0" x1="230.5" y1="40.5" x2="230.5" y2="50.5"/>
<line class="st0" x1="230.5" y1="50.5" x2="240.5" y2="50.5"/>
<line class="st0" x1="250.5" y1="40.5" x2="250.5" y2="50.5"/>
<line class="st0" x1="260.5" y1="50.5" x2="270.5" y2="50.5"/>
<line class="st0" x1="10.5" y1="50.5" x2="10.5" y2="60.5"/>
<line class="st0" x1="20.5" y1="50.5" x2="20.5" y2="60.5"/>
<line class="st0" x1="20.5" y1="60.5" x2="30.5" y2="60.5"/>
<line class="st0" x1="40.5" y1="60.5" x2="50.5" y2="60.5"/>
<line class="st0" x1="50.5" y1="60.5" x2="60.5" y2="60.5"/>
<line class="st0" x1="70.5" y1="50.5" x2="70.5" y2="60.5"/>
<line class="st0" x1="60.5" y1="60.5" x2="70.5" y2="60.5"/>
<line class="st0" x1="70.5" y1="60.5" x2="80.5" y2="60.5"/>
<line class="st0" x1="90.5" y1="60.5" x2="100.5" y2="60.5"/>
<line class="st0" x1="100.5" y1="60.5" x2="110.5" y2="60.5"/>
<line class="st0" x1="110.5" y1="60.5" x2="120.5" y2="60.5"/>
<line class="st0" x1="130.5" y1="50.5" x2="130.5" y2="60.5"/>
<line class="st0" x1="140.5" y1="60.5" x2="150.5" y2="60.5"/>
<line class="st0" x1="160.5" y1="50.5" x2="160.5" y2="60.5"/>
<line class="st0" x1="150.5" y1="60.5" x2="160.5" y2="60.5"/>
<line class="st0" x1="170.5" y1="50.5" x2="170.5" y2="60.5"/>
<line class="st0" x1="180.5" y1="50.5" x2="180.5" y2="60.5"/>
<line class="st0" x1="200.5" y1="50.5" x2="200.5" y2="60.5"/>
<line class="st0" x1="210.5" y1="50.5" x2="210.5" y2="60.5"/>
<line class="st0" x1="220.5" y1="50.5" x2="220.5" y2="60.5"/>
<line class="st0" x1="220.5" y1="60.5" x2="230.5" y2="60.5"/>
<line class="st0" x1="240.5" y1="50.5" x2="240.5" y2="60.5"/>
<line class="st0" x1="250.5" y1="50.5" x2="250.5" y2="60.5"/>
<line class="st0" x1="240.5" y1="60.5" x2="250.5" y2="60.5"/>
<line class="st0" x1="250.5" y1="60.5" x2="260.5" y2="60.5"/>
<line class="st0" x1="270.5" y1="50.5" x2="270.5" y2="60.5"/>
<line class="st0" x1="10.5" y1="60.5" x2="10.5" y2="70.5"/>
<line class="st0" x1="10.5" y1="70.5" x2="20.5" y2="70.5"/>
<line class="st0" x1="30.5" y1="60.5" x2="30.5" y2="70.5"/>
<line class="st0" x1="30.5" y1="70.5" x2="40.5" y2="70.5"/>
<line class="st0" x1="40.5" y1="70.5" x2="50.5" y2="70.5"/>
<line class="st0" x1="50.5" y1="70.5" x2="60.5" y2="70.5"/>
<line class="st0" x1="60.5" y1="70.5" x2="70.5" y2="70.5"/>
<line class="st0" x1="80.5" y1="60.5" x2="80.5" y2="70.5"/>
<line class="st0" x1="90.5" y1="60.5" x2="90.5" y2="70.5"/>
<line class="st0" x1="100.5" y1="70.5" x2="110.5" y2="70.5"/>
<line class="st0" x1="120.5" y1="60.5" x2="120.5" y2="70.5"/>
<line class="st0" x1="130.5" y1="60.5" x2="130.5" y2="70.5"/>
<line class="st0" x1="130.5" y1="70.5" x2="140.5" y2="70.5"/>
<line class="st0" x1="140.5" y1="70.5" x2="150.5" y2="70.5"/>
<line class="st0" x1="150.5" y1="70.5" x2="160.5" y2="70.5"/>
<line class="st0" x1="160.5" y1="70.5" x2="170.5" y2="70.5"/>
<line class="st0" x1="180.5" y1="60.5" x2="180.5" y2="70.5"/>
<line class="st0" x1="170.5" y1="70.5" x2="180.5" y2="70.5"/>
<line class="st0" x1="190.5" y1="60.5" x2="190.5" y2="70.5"/>
<line class="st0" x1="200.5" y1="60.5" x2="200.5" y2="70.5"/>
<line class="st0" x1="210.5" y1="60.5" x2="210.5" y2="70.5"/>
<line class="st0" x1="210.5" y1="70.5" x2="220.5" y2="70.5"/>
<line class="st0" x1="230.5" y1="60.5" x2="230.5" y2="70.5"/>
<line class="st0" x1="240.5" y1="60.5" x2="240.5" y2="70.5"/>
<line class="st0" x1="250.5" y1="70.5" x2="260.5" y2="70.5"/>
<line class="st0" x1="270.5" y1="60.5" x2="270.5" y2="70.5"/>
<line class="st0" x1="260.5" y1="70.5" x2="270.5" y2="70.5"/>
<line class="st0" x1="20.5" y1="70.5" x2="20.5" y2="80.5"/>
<line class="st0" x1="10.5" y1="80.5" x2="20.5" y2="80.5"/>
<line class="st0" x1="30.5" y1="70.5" x2="30.5" y2="80.5"/>
<line class="st0" x1="30.5" y1="80.5" x2="40.5" y2="80.5"/>
<line class="st0" x1="50.5" y1="70.5" x2="50.5" y2="80.5"/>
<line class="st0" x1="60.5" y1="80.5" x2="70.5" y2="80.5"/>
<line class="st0" x1="80.5" y1="70.5" x2="80.5" y2="80.5"/>
<line class="st0" x1="70.5" y1="80.5" x2="80.5" y2="80.5"/>
<line class="st0" x1="80.5" y1="80.5" x2="90.5" y2="80.5"/>
<line class="st0" x1="100.5" y1="70.5" x2="100.5" y2="80.5"/>
<line class="st0" x1="90.5" y1="80.5" x2="100.5" y2="80.5"/>
<line class="st0" x1="120.5" y1="70.5" x2="120.5" y2="80.5"/>
<line class="st0" x1="110.5" y1="80.5" x2="120.5" y2="80.5"/>
<line class="st0" x1="130.5" y1="70.5" x2="130.5" y2="80.5"/>
<line class="st0" x1="130.5" y1="80.5" x2="140.5" y2="80.5"/>
<line class="st0" x1="150.5" y1="70.5" x2="150.5" y2="80.5"/>
<line class="st0" x1="160.5" y1="80.5" x2="170.5" y2="80.5"/>
<line class="st0" x1="180.5" y1="70.5" x2="180.5" y2="80.5"/>
<line class="st0" x1="190.5" y1="70.5" x2="190.5" y2="80.5"/>
<line class="st0" x1="200.5" y1="70.5" x2="200.5" y2="80.5"/>
<line class="st0" x1="200.5" y1="80.5" x2="210.5" y2="80.5"/>
<line class="st0" x1="210.5" y1="80.5" x2="220.5" y2="80.5"/>
<line class="st0" x1="230.5" y1="70.5" x2="230.5" y2="80.5"/>
<line class="st0" x1="240.5" y1="70.5" x2="240.5" y2="80.5"/>
<line class="st0" x1="250.5" y1="70.5" x2="250.5" y2="80.5"/>
<line class="st0" x1="250.5" y1="80.5" x2="260.5" y2="80.5"/>
<line class="st0" x1="270.5" y1="70.5" x2="270.5" y2="80.5"/>
<line class="st0" x1="0.5" y1="90.5" x2="10.5" y2="90.5"/>
<line class="st0" x1="20.5" y1="80.5" x2="20.5" y2="90.5"/>
<line class="st0" x1="20.5" y1="90.5" x2="30.5" y2="90.5"/>
<line class="st0" x1="40.5" y1="80.5" x2="40.5" y2="90.5"/>
<line class="st0" x1="50.5" y1="90.5" x2="60.5" y2="90.5"/>
<line class="st0" x1="60.5" y1="90.5" x2="70.5" y2="90.5"/>
<line class="st0" x1="70.5" y1="90.5" x2="80.5" y2="90.5"/>
<line class="st0" x1="80.5" y1="90.5" x2="90.5" y2="90.5"/>
<line class="st0" x1="100.5" y1="80.5" x2="100.5" y2="90.5"/>
<line class="st0" x1="100.5" y1="90.5" x2="110.5" y2="90.5"/>
<line class="st0" x1="120.5" y1="80.5" x2="120.5" y2="90.5"/>
<line class="st0" x1="130.5" y1="80.5" x2="130.5" y2="90.5"/>
<line class="st0" x1="150.5" y1="80.5" x2="150.5" y2="90.5"/>
<line class="st0" x1="150.5" y1="90.5" x2="160.5" y2="90.5"/>
<line class="st0" x1="170.5" y1="80.5" x2="170.5" y2="90.5"/>
<line class="st0" x1="190.5" y1="80.5" x2="190.5" y2="90.5"/>
<line class="st0" x1="180.5" y1="90.5" x2="190.5" y2="90.5"/>
<line class="st0" x1="190.5" y1="90.5" x2="200.5" y2="90.5"/>
<line class="st0" x1="210.5" y1="80.5" x2="210.5" y2="90.5"/>
<line class="st0" x1="200.5" y1="90.5" x2="210.5" y2="90.5"/>
<line class="st0" x1="230.5" y1="80.5" x2="230.5" y2="90.5"/>
<line class="st0" x1="220.5" y1="90.5" x2="230.5" y2="90.5"/>
<line class="st0" x1="230.5" y1="90.5" x2="240.5" y2="90.5"/>
<line class="st0" x1="250.5" y1="80.5" x2="250.5" y2="90.5"/>
<line class="st0" x1="240.5" y1="90.5" x2="250.5" y2="90.5"/>
<line class="st0" x1="270.5" y1="80.5" x2="270.5" y2="90.5"/>
<line class="st0" x1="10.5" y1="90.5" x2="10.5" y2="100.5"/>
<line class="st0" x1="10.5" y1="100.5" x2="20.5" y2="100.5"/>
<line class="st0" x1="30.5" y1="90.5" x2="30.5" y2="100.5"/>
<line class="st0" x1="40.5" y1="90.5" x2="40.5" y2="100.5"/>
<line class="st0" x1="50.5" y1="90.5" x2="50.5" y2="100.5"/>
<line class="st0" x1="60.5" y1="100.5" x2="70.5" y2="100.5"/>
<line class="st0" x1="80.5" y1="90.5" x2="80.5" y2="100.5"/>
<line class="st0" x1="80.5" y1="100.5" x2="90.5" y2="100.5"/>
<line class="st0" x1="90.5" y1="100.5" x2="100.5" y2="100.5"/>
<line class="st0" x1="110.5" y1="90.5" x2="110.5" y2="100.5"/>
<line class="st0" x1="120.5" y1="90.5" x2="120.5" y2="100.5"/>
<line class="st0" x1="140.5" y1="90.5" x2="140.5" y2="100.5"/>
<line class="st0" x1="130.5" y1="100.5" x2="140.5" y2="100.5"/>
<line class="st0" x1="140.5" y1="100.5" x2="150.5" y2="100.5"/>
<line class="st0" x1="160.5" y1="90.5" x2="160.5" y2="100.5"/>
<line class="st0" x1="150.5" y1="100.5" x2="160.5" y2="100.5"/>
<line class="st0" x1="170.5" y1="90.5" x2="170.5" y2="100.5"/>
<line class="st0" x1="180.5" y1="90.5" x2="180.5" y2="100.5"/>
<line class="st0" x1="170.5" y1="100.5" x2="180.5" y2="100.5"/>
<line class="st0" x1="190.5" y1="100.5" x2="200.5" y2="100.5"/>
<line class="st0" x1="200.5" y1="100.5" x2="210.5" y2="100.5"/>
<line class="st0" x1="220.5" y1="90.5" x2="220.5" y2="100.5"/>
<line class="st0" x1="210.5" y1="100.5" x2="220.5" y2="100.5"/>
<line class="st0" x1="220.5" y1="100.5" x2="230.5" y2="100.5"/>
<line class="st0" x1="260.5" y1="90.5" x2="260.5" y2="100.5"/>
<line class="st0" x1="250.5" y1="100.5" x2="260.5" y2="100.5"/>
<line class="st0" x1="270.5" y1="90.5" x2="270.5" y2="100.5"/>
<line class="st0" x1="10.5" y1="100.5" x2="10.5" y2="110.5"/>
<line class="st0" x1="30.5" y1="100.5" x2="30.5" y2="110.5"/>
<line class="st0" x1="20.5" y1="110.5" x2="30.5" y2="110.5"/>
<line class="st0" x1="40.5" y1="100.5" x2="40.5" y2="110.5"/>
<line class="st0" x1="50.5" y1="100.5" x2="50.5" y2="110.5"/>
<line class="st0" x1="50.5" y1="110.5" x2="60.5" y2="110.5"/>
<line class="st0" x1="70.5" y1="100.5" x2="70.5" y2="110.5"/>
<line class="st0" x1="70.5" y1="110.5" x2="80.5" y2="110.5"/>
<line class="st0" x1="90.5" y1="100.5" x2="90.5" y2="110.5"/>
<line class="st0" x1="100.5" y1="100.5" x2="100.5" y2="110.5"/>
<line class="st0" x1="110.5" y1="100.5" x2="110.5" y2="110.5"/>
<line class="st0" x1="120.5" y1="100.5" x2="120.5" y2="110.5"/>
<line class="st0" x1="130.5" y1="100.5" x2="130.5" y2="110.5"/>
<line class="st0" x1="120.5" y1="110.5" x2="130.5" y2="110.5"/>
<line class="st0" x1="150.5" y1="100.5" x2="150.5" y2="110.5"/>
<line class="st0" x1="170.5" y1="100.5" x2="170.5" y2="110.5"/>
<line class="st0" x1="160.5" y1="110.5" x2="170.5" y2="110.5"/>
<line class="st0" x1="190.5" y1="100.5" x2="190.5" y2="110.5"/>
<line class="st0" x1="180.5" y1="110.5" x2="190.5" y2="110.5"/>
<line class="st0" x1="200.5" y1="110.5" x2="210.5" y2="110.5"/>
<line class="st0" x1="210.5" y1="110.5" x2="220.5" y2="110.5"/>
<line class="st0" x1="230.5" y1="100.5" x2="230.5" y2="110.5"/>
<line class="st0" x1="240.5" y1="100.5" x2="240.5" y2="110.5"/>
<line class="st0" x1="250.5" y1="100.5" x2="250.5" y2="110.5"/>
<line class="st0" x1="250.5" y1="110.5" x2="260.5" y2="110.5"/>
<line class="st0" x1="260.5" y1="110.5" x2="270.5" y2="110.5"/>
<line class="st0" x1="10.5" y1="110.5" x2="10.5" y2="120.5"/>
<line class="st0" x1="0.5" y1="120.5" x2="10.5" y2="120.5"/>
<line class="st0" x1="10.5" y1="120.5" x2="20.5" y2="120.5"/>
<line class="st0" x1="20.5" y1="120.5" x2="30.5" y2="120.5"/>
<line class="st0" x1="40.5" y1="110.5" x2="40.5" y2="120.5"/>
<line class="st0" x1="30.5" y1="120.5" x2="40.5" y2="120.5"/>
<line class="st0" x1="40.5" y1="120.5" x2="50.5" y2="120.5"/>
<line class="st0" x1="60.5" y1="110.5" x2="60.5" y2="120.5"/>
<line class="st0" x1="60.5" y1="120.5" x2="70.5" y2="120.5"/>
<line class="st0" x1="80.5" y1="110.5" x2="80.5" y2="120.5"/>
<line class="st0" x1="90.5" y1="110.5" x2="90.5" y2="120.5"/>
<line class="st0" x1="90.5" y1="120.5" x2="100.5" y2="120.5"/>
<line class="st0" x1="100.5" y1="120.5" x2="110.5" y2="120.5"/>
<line class="st0" x1="120.5" y1="110.5" x2="120.5" y2="120.5"/>
<line class="st0" x1="140.5" y1="110.5" x2="140.5" y2="120.5"/>
<line class="st0" x1="130.5" y1="120.5" x2="140.5" y2="120.5"/>
<line class="st0" x1="140.5" y1="120.5" x2="150.5" y2="120.5"/>
<line class="st0" x1="160.5" y1="110.5" x2="160.5" y2="120.5"/>
<line class="st0" x1="150.5" y1="120.5" x2="160.5" y2="120.5"/>
<line class="st0" x1="170.5" y1="110.5" x2="170.5" y2="120.5"/>
<line class="st0" x1="170.5" y1="120.5" x2="180.5" y2="120.5"/>
<line class="st0" x1="180.5" y1="120.5" x2="190.5" y2="120.5"/>
<line class="st0" x1="200.5" y1="110.5" x2="200.5" y2="120.5"/>
<line class="st0" x1="190.5" y1="120.5" x2="200.5" y2="120.5"/>
<line class="st0" x1="220.5" y1="110.5" x2="220.5" y2="120.5"/>
<line class="st0" x1="210.5" y1="120.5" x2="220.5" y2="120.5"/>
<line class="st0" x1="230.5" y1="110.5" x2="230.5" y2="120.5"/>
<line class="st0" x1="240.5" y1="110.5" x2="240.5" y2="120.5"/>
<line class="st0" x1="240.5" y1="120.5" x2="250.5" y2="120.5"/>
<line class="st0" x1="250.5" y1="120.5" x2="260.5" y2="120.5"/>
<line class="st0" x1="270.5" y1="110.5" x2="270.5" y2="120.5"/>
<line class="st0" x1="10.5" y1="130.5" x2="20.5" y2="130.5"/>
<line class="st0" x1="20.5" y1="130.5" x2="30.5" y2="130.5"/>
<line class="st0" x1="50.5" y1="120.5" x2="50.5" y2="130.5"/>
<line class="st0" x1="60.5" y1="120.5" x2="60.5" y2="130.5"/>
<line class="st0" x1="50.5" y1="130.5" x2="60.5" y2="130.5"/>
<line class="st0" x1="80.5" y1="120.5" x2="80.5" y2="130.5"/>
<line class="st0" x1="70.5" y1="130.5" x2="80.5" y2="130.5"/>
<line class="st0" x1="80.5" y1="130.5" x2="90.5" y2="130.5"/>
<line class="st0" x1="100.5" y1="120.5" x2="100.5" y2="130.5"/>
<line class="st0" x1="100.5" y1="130.5" x2="110.5" y2="130.5"/>
<line class="st0" x1="120.5" y1="120.5" x2="120.5" y2="130.5"/>
<line class="st0" x1="110.5" y1="130.5" x2="120.5" y2="130.5"/>
<line class="st0" x1="120.5" y1="130.5" x2="130.5" y2="130.5"/>
<line class="st0" x1="130.5" y1="130.5" x2="140.5" y2="130.5"/>
<line class="st0" x1="150.5" y1="120.5" x2="150.5" y2="130.5"/>
<line class="st0" x1="160.5" y1="130.5" x2="170.5" y2="130.5"/>
<line class="st0" x1="170.5" y1="130.5" x2="180.5" y2="130.5"/>
<line class="st0" x1="190.5" y1="120.5" x2="190.5" y2="130.5"/>
<line class="st0" x1="200.5" y1="130.5" x2="210.5" y2="130.5"/>
<line class="st0" x1="210.5" y1="130.5" x2="220.5" y2="130.5"/>
<line class="st0" x1="230.5" y1="120.5" x2="230.5" y2="130.5"/>
<line class="st0" x1="220.5" y1="130.5" x2="230.5" y2="130.5"/>
<line class="st0" x1="240.5" y1="120.5" x2="240.5" y2="130.5"/>
<line class="st0" x1="260.5" y1="120.5" x2="260.5" y2="130.5"/>
<line class="st0" x1="250.5" y1="130.5" x2="260.5" y2="130.5"/>
<line class="st0" x1="270.5" y1="120.5" x2="270.5" y2="130.5"/>
<line class="st0" x1="10.5" y1="130.5" x2="10.5" y2="140.5"/>
<line class="st0" x1="0.5" y1="140.5" x2="10.5" y2="140.5"/>
<line class="st0" x1="30.5" y1="130.5" x2="30.5" y2="140.5"/>
<line class="st0" x1="40.5" y1="130.5" x2="40.5" y2="140.5"/>
<line class="st0" x1="50.5" y1="130.5" x2="50.5" y2="140.5"/>
<line class="st0" x1="70.5" y1="130.5" x2="70.5" y2="140.5"/>
<line class="st0" x1="60.5" y1="140.5" x2="70.5" y2="140.5"/>
<line class="st0" x1="90.5" y1="130.5" x2="90.5" y2="140.5"/>
<line class="st0" x1="90.5" y1="140.5" x2="100.5" y2="140.5"/>
<line class="st0" x1="110.5" y1="130.5" x2="110.5" y2="140.5"/>
<line class="st0" x1="130.5" y1="130.5" x2="130.5" y2="140.5"/>
<line class="st0" x1="150.5" y1="130.5" x2="150.5" y2="140.5"/>
<line class="st0" x1="140.5" y1="140.5" x2="150.5" y2="140.5"/>
<line class="st0" x1="160.5" y1="130.5" x2="160.5" y2="140.5"/>
<line class="st0" x1="170.5" y1="140.5" x2="180.5" y2="140.5"/>
<line class="st0" x1="190.5" y1="130.5" x2="190.5" y2="140.5"/>
<line class="st0" x1="180.5" y1="140.5" x2="190.5" y2="140.5"/>
<line class="st0" x1="200.5" y1="130.5" x2="200.5" y2="140.5"/>
<line class="st0" x1="220.5" y1="130.5" x2="220.5" y2="140.5"/>
<line class="st0" x1="240.5" y1="130.5" x2="240.5" y2="140.5"/>
<line class="st0" x1="230.5" y1="140.5" x2="240.5" y2="140.5"/>
<line class="st0" x1="240.5" y1="140.5" x2="250.5" y2="140.5"/>
<line class="st0" x1="260.5" y1="130.5" x2="260.5" y2="140.5"/>
<line class="st0" x1="260.5" y1="140.5" x2="270.5" y2="140.5"/>
<line class="st0" x1="20.5" y1="140.5" x2="20.5" y2="150.5"/>
<line class="st0" x1="10.5" y1="150.5" x2="20.5" y2="150.5"/>
<line class="st0" x1="40.5" y1="140.5" x2="40.5" y2="150.5"/>
<line class="st0" x1="30.5" y1="150.5" x2="40.5" y2="150.5"/>
<line class="st0" x1="40.5" y1="150.5" x2="50.5" y2="150.5"/>
<line class="st0" x1="60.5" y1="140.5" x2="60.5" y2="150.5"/>
<line class="st0" x1="50.5" y1="150.5" x2="60.5" y2="150.5"/>
<line class="st0" x1="80.5" y1="140.5" x2="80.5" y2="150.5"/>
<line class="st0" x1="70.5" y1="150.5" x2="80.5" y2="150.5"/>
<line class="st0" x1="80.5" y1="150.5" x2="90.5" y2="150.5"/>
<line class="st0" x1="100.5" y1="140.5" x2="100.5" y2="150.5"/>
<line class="st0" x1="110.5" y1="140.5" x2="110.5" y2="150.5"/>
<line class="st0" x1="120.5" y1="140.5" x2="120.5" y2="150.5"/>
<line class="st0" x1="140.5" y1="140.5" x2="140.5" y2="150.5"/>
<line class="st0" x1="130.5" y1="150.5" x2="140.5" y2="150.5"/>
<line class="st0" x1="140.5" y1="150.5" x2="150.5" y2="150.5"/>
<line class="st0" x1="160.5" y1="140.5" x2="160.5" y2="150.5"/>
<line class="st0" x1="160.5" y1="150.5" x2="170.5" y2="150.5"/>
<line class="st0" x1="170.5" y1="150.5" x2="180.5" y2="150.5"/>
<line class="st0" x1="190.5" y1="140.5" x2="190.5" y2="150.5"/>
<line class="st0" x1="190.5" y1="150.5" x2="200.5" y2="150.5"/>
<line class="st0" x1="210.5" y1="140.5" x2="210.5" y2="150.5"/>
<line class="st0" x1="200.5" y1="150.5" x2="210.5" y2="150.5"/>
<line class="st0" x1="220.5" y1="140.5" x2="220.5" y2="150.5"/>
<line class="st0" x1="220.5" y1="150.5" x2="230.5" y2="150.5"/>
<line class="st0" x1="230.5" y1="150.5" x2="240.5" y2="150.5"/>
<line class="st0" x1="240.5" y1="150.5" x2="250.5" y2="150.5"/>
<line class="st0" x1="250.5" y1="150.5" x2="260.5" y2="150.5"/>
<line class="st0" x1="270.5" y1="140.5" x2="270.5" y2="150.5"/>
<line class="st0" x1="10.5" y1="150.5" x2="10.5" y2="160.5"/>
<line class="st0" x1="30.5" y1="150.5" x2="30.5" y2="160.5"/>
<line class="st0" x1="20.5" y1="160.5" x2="30.5" y2="160.5"/>
<line class="st0" x1="40.5" y1="160.5" x2="50.5" y2="160.5"/>
<line class="st0" x1="60.5" y1="150.5" x2="60.5" y2="160.5"/>
<line class="st0" x1="60.5" y1="160.5" x2="70.5" y2="160.5"/>
<line class="st0" x1="70.5" y1="160.5" x2="80.5" y2="160.5"/>
<line class="st0" x1="90.5" y1="150.5" x2="90.5" y2="160.5"/>
<line class="st0" x1="100.5" y1="150.5" x2="100.5" y2="160.5"/>
<line class="st0" x1="90.5" y1="160.5" x2="100.5" y2="160.5"/>
<line class="st0" x1="100.5" y1="160.5" x2="110.5" y2="160.5"/>
<line class="st0" x1="120.5" y1="150.5" x2="120.5" y2="160.5"/>
<line class="st0" x1="110.5" y1="160.5" x2="120.5" y2="160.5"/>
<line class="st0" x1="130.5" y1="150.5" x2="130.5" y2="160.5"/>
<line class="st0" x1="150.5" y1="150.5" x2="150.5" y2="160.5"/>
<line class="st0" x1="160.5" y1="160.5" x2="170.5" y2="160.5"/>
<line class="st0" x1="180.5" y1="150.5" x2="180.5" y2="160.5"/>
<line class="st0" x1="180.5" y1="160.5" x2="190.5" y2="160.5"/>
<line class="st0" x1="190.5" y1="160.5" x2="200.5" y2="160.5"/>
<line class="st0" x1="210.5" y1="150.5" x2="210.5" y2="160.5"/>
<line class="st0" x1="210.5" y1="160.5" x2="220.5" y2="160.5"/>
<line class="st0" x1="220.5" y1="160.5" x2="230.5" y2="160.5"/>
<line class="st0" x1="230.5" y1="160.5" x2="240.5" y2="160.5"/>
<line class="st0" x1="240.5" y1="160.5" x2="250.5" y2="160.5"/>
<line class="st0" x1="260.5" y1="150.5" x2="260.5" y2="160.5"/>
<line class="st0" x1="270.5" y1="150.5" x2="270.5" y2="160.5"/>
<line class="st0" x1="260.5" y1="160.5" x2="270.5" y2="160.5"/>
<line class="st0" x1="10.5" y1="160.5" x2="10.5" y2="170.5"/>
<line class="st0" x1="0.5" y1="170.5" x2="10.5" y2="170.5"/>
<line class="st0" x1="10.5" y1="170.5" x2="20.5" y2="170.5"/>
<line class="st0" x1="30.5" y1="160.5" x2="30.5" y2="170.5"/>
<line class="st0" x1="20.5" y1="170.5" x2="30.5" y2="170.5"/>
<line class="st0" x1="30.5" y1="170.5" x2="40.5" y2="170.5"/>
<line class="st0" x1="50.5" y1="160.5" x2="50.5" y2="170.5"/>
<line class="st0" x1="50.5" y1="170.5" x2="60.5" y2="170.5"/>
<line class="st0" x1="60.5" y1="170.5" x2="70.5" y2="170.5"/>
<line class="st0" x1="80.5" y1="160.5" x2="80.5" y2="170.5"/>
<line class="st0" x1="80.5" y1="170.5" x2="90.5" y2="170.5"/>
<line class="st0" x1="120.5" y1="160.5" x2="120.5" y2="170.5"/>
<line class="st0" x1="110.5" y1="170.5" x2="120.5" y2="170.5"/>
<line class="st0" x1="130.5" y1="160.5" x2="130.5" y2="170.5"/>
<line class="st0" x1="140.5" y1="160.5" x2="140.5" y2="170.5"/>
<line class="st0" x1="150.5" y1="160.5" x2="150.5" y2="170.5"/>
<line class="st0" x1="150.5" y1="170.5" x2="160.5" y2="170.5"/>
<line class="st0" x1="170.5" y1="160.5" x2="170.5" y2="170.5"/>
<line class="st0" x1="170.5" y1="170.5" x2="180.5" y2="170.5"/>
<line class="st0" x1="180.5" y1="170.5" x2="190.5" y2="170.5"/>
<line class="st0" x1="200.5" y1="160.5" x2="200.5" y2="170.5"/>
<line class="st0" x1="200.5" y1="170.5" x2="210.5" y2="170.5"/>
<line class="st0" x1="210.5" y1="170.5" x2="220.5" y2="170.5"/>
<line class="st0" x1="230.5" y1="160.5" x2="230.5" y2="170.5"/>
<line class="st0" x1="250.5" y1="160.5" x2="250.5" y2="170.5"/>
<line class="st0" x1="250.5" y1="170.5" x2="260.5" y2="170.5"/>
<line class="st0" x1="260.5" y1="170.5" x2="270.5" y2="170.5"/>
<line class="st0" x1="10.5" y1="170.5" x2="10.5" y2="180.5"/>
<line class="st0" x1="0.5" y1="180.5" x2="10.5" y2="180.5"/>
<line class="st0" x1="20.5" y1="180.5" x2="30.5" y2="180.5"/>
<line class="st0" x1="30.5" y1="180.5" x2="40.5" y2="180.5"/>
<line class="st0" x1="50.5" y1="170.5" x2="50.5" y2="180.5"/>
<line class="st0" x1="40.5" y1="180.5" x2="50.5" y2="180.5"/>
<line class="st0" x1="60.5" y1="170.5" x2="60.5" y2="180.5"/>
<line class="st0" x1="80.5" y1="170.5" x2="80.5" y2="180.5"/>
<line class="st0" x1="70.5" y1="180.5" x2="80.5" y2="180.5"/>
<line class="st0" x1="100.5" y1="170.5" x2="100.5" y2="180.5"/>
<line class="st0" x1="90.5" y1="180.5" x2="100.5" y2="180.5"/>
<line class="st0" x1="110.5" y1="170.5" x2="110.5" y2="180.5"/>
<line class="st0" x1="100.5" y1="180.5" x2="110.5" y2="180.5"/>
<line class="st0" x1="130.5" y1="170.5" x2="130.5" y2="180.5"/>
<line class="st0" x1="120.5" y1="180.5" x2="130.5" y2="180.5"/>
<line class="st0" x1="140.5" y1="170.5" x2="140.5" y2="180.5"/>
<line class="st0" x1="150.5" y1="170.5" x2="150.5" y2="180.5"/>
<line class="st0" x1="150.5" y1="180.5" x2="160.5" y2="180.5"/>
<line class="st0" x1="160.5" y1="180.5" x2="170.5" y2="180.5"/>
<line class="st0" x1="190.5" y1="170.5" x2="190.5" y2="180.5"/>
<line class="st0" x1="180.5" y1="180.5" x2="190.5" y2="180.5"/>
<line class="st0" x1="190.5" y1="180.5" x2="200.5" y2="180.5"/>
<line class="st0" x1="210.5" y1="170.5" x2="210.5" y2="180.5"/>
<line class="st0" x1="220.5" y1="170.5" x2="220.5" y2="180.5"/>
<line class="st0" x1="230.5" y1="170.5" x2="230.5" y2="180.5"/>
<line class="st0" x1="240.5" y1="170.5" x2="240.5" y2="180.5"/>
<line class="st0" x1="240.5" y1="180.5" x2="250.5" y2="180.5"/>
<line class="st0" x1="260.5" y1="170.5" x2="260.5" y2="180.5"/>
<line class="st0" x1="20.5" y1="180.5" x2="20.5" y2="190.5"/>
<line class="st0" x1="10.5" y1="190.5" x2="20.5" y2="190.5"/>
<line class="st0" x1="20.5" y1="190.5" x2="30.5" y2="190.5"/>
<line class="st0" x1="40.5" y1="180.5" x2="40.5" y2="190.5"/>
<line class="st0" x1="60.5" y1="180.5" x2="60.5" y2="190.5"/>
<line class="st0" x1="70.5" y1="180.5" x2="70.5" y2="190.5"/>
<line class="st0" x1="70.5" y1="190.5" x2="80.5" y2="190.5"/>
<line class="st0" x1="80.5" y1="190.5" x2="90.5" y2="190.5"/>
<line class="st0" x1="90.5" y1="190.5" x2="100.5" y2="190.5"/>
<line class="st0" x1="100.5" y1="190.5" x2="110.5" y2="190.5"/>
<line class="st0" x1="120.5" y1="180.5" x2="120.5" y2="190.5"/>
<line class="st0" x1="140.5" y1="180.5" x2="140.5" y2="190.5"/>
<line class="st0" x1="130.5" y1="190.5" x2="140.5" y2="190.5"/>
<line class="st0" x1="140.5" y1="190.5" x2="150.5" y2="190.5"/>
<line class="st0" x1="150.5" y1="190.5" x2="160.5" y2="190.5"/>
<line class="st0" x1="170.5" y1="180.5" x2="170.5" y2="190.5"/>
<line class="st0" x1="180.5" y1="180.5" x2="180.5" y2="190.5"/>
<line class="st0" x1="190.5" y1="190.5" x2="200.5" y2="190.5"/>
<line class="st0" x1="210.5" y1="180.5" x2="210.5" y2="190.5"/>
<line class="st0" x1="200.5" y1="190.5" x2="210.5" y2="190.5"/>
<line class="st0" x1="220.5" y1="180.5" x2="220.5" y2="190.5"/>
<line class="st0" x1="230.5" y1="180.5" x2="230.5" y2="190.5"/>
<line class="st0" x1="230.5" y1="190.5" x2="240.5" y2="190.5"/>
<line class="st0" x1="250.5" y1="180.5" x2="250.5" y2="190.5"/>
<line class="st0" x1="250.5" y1="190.5" x2="260.5" y2="190.5"/>
<line class="st0" x1="270.5" y1="180.5" x2="270.5" y2="190.5"/>
<line class="st0" x1="10.5" y1="190.5" x2="10.5" y2="200.5"/>
<line class="st0" x1="30.5" y1="190.5" x2="30.5" y2="200.5"/>
<line class="st0" x1="30.5" y1="200.5" x2="40.5" y2="200.5"/>
<line class="st0" x1="50.5" y1="190.5" x2="50.5" y2="200.5"/>
<line class="st0" x1="40.5" y1="200.5" x2="50.5" y2="200.5"/>
<line class="st0" x1="60.5" y1="190.5" x2="60.5" y2="200.5"/>
<line class="st0" x1="60.5" y1="200.5" x2="70.5" y2="200.5"/>
<line class="st0" x1="80.5" y1="190.5" x2="80.5" y2="200.5"/>
<line class="st0" x1="90.5" y1="200.5" x2="100.5" y2="200.5"/>
<line class="st0" x1="110.5" y1="190.5" x2="110.5" y2="200.5"/>
<line class="st0" x1="120.5" y1="190.5" x2="120.5" y2="200.5"/>
<line class="st0" x1="120.5" y1="200.5" x2="130.5" y2="200.5"/>
<line class="st0" x1="140.5" y1="190.5" x2="140.5" y2="200.5"/>
<line class="st0" x1="160.5" y1="190.5" x2="160.5" y2="200.5"/>
<line class="st0" x1="170.5" y1="190.5" x2="170.5" y2="200.5"/>
<line class="st0" x1="180.5" y1="190.5" x2="180.5" y2="200.5"/>
<line class="st0" x1="170.5" y1="200.5" x2="180.5" y2="200.5"/>
<line class="st0" x1="190.5" y1="190.5" x2="190.5" y2="200.5"/>
<line class="st0" x1="220.5" y1="190.5" x2="220.5" y2="200.5"/>
<line class="st0" x1="210.5" y1="200.5" x2="220.5" y2="200.5"/>
<line class="st0" x1="220.5" y1="200.5" x2="230.5" y2="200.5"/>
<line class="st0" x1="240.5" y1="190.5" x2="240.5" y2="200.5"/>
<line class="st0" x1="250.5" y1="190.5" x2="250.5" y2="200.5"/>
<line class="st0" x1="250.5" y1="200.5" x2="260.5" y2="200.5"/>
<line class="st0" x1="270.5" y1="190.5" x2="270.5" y2="200.5"/>
<line class="st0" x1="0.5" y1="210.5" x2="10.5" y2="210.5"/>
<line class="st0" x1="20.5" y1="200.5" x2="20.5" y2="210.5"/>
<line class="st0" x1="10.5" y1="210.5" x2="20.5" y2="210.5"/>
<line class="st0" x1="20.5" y1="210.5" x2="30.5" y2="210.5"/>
<line class="st0" x1="30.5" y1="210.5" x2="40.5" y2="210.5"/>
<line class="st0" x1="50.5" y1="200.5" x2="50.5" y2="210.5"/>
<line class="st0" x1="60.5" y1="200.5" x2="60.5" y2="210.5"/>
<line class="st0" x1="80.5" y1="200.5" x2="80.5" y2="210.5"/>
<line class="st0" x1="70.5" y1="210.5" x2="80.5" y2="210.5"/>
<line class="st0" x1="80.5" y1="210.5" x2="90.5" y2="210.5"/>
<line class="st0" x1="100.5" y1="200.5" x2="100.5" y2="210.5"/>
<line class="st0" x1="110.5" y1="200.5" x2="110.5" y2="210.5"/>
<line class="st0" x1="110.5" y1="210.5" x2="120.5" y2="210.5"/>
<line class="st0" x1="130.5" y1="200.5" x2="130.5" y2="210.5"/>
<line class="st0" x1="120.5" y1="210.5" x2="130.5" y2="210.5"/>
<line class="st0" x1="140.5" y1="200.5" x2="140.5" y2="210.5"/>
<line class="st0" x1="150.5" y1="200.5" x2="150.5" y2="210.5"/>
<line class="st0" x1="160.5" y1="200.5" x2="160.5" y2="210.5"/>
<line class="st0" x1="170.5" y1="200.5" x2="170.5" y2="210.5"/>
<line class="st0" x1="190.5" y1="200.5" x2="190.5" y2="210.5"/>
<line class="st0" x1="180.5" y1="210.5" x2="190.5" y2="210.5"/>
<line class="st0" x1="200.5" y1="200.5" x2="200.5" y2="210.5"/>
<line class="st0" x1="200.5" y1="210.5" x2="210.5" y2="210.5"/>
<line class="st0" x1="210.5" y1="210.5" x2="220.5" y2="210.5"/>
<line class="st0" x1="220.5" y1="210.5" x2="230.5" y2="210.5"/>
<line class="st0" x1="240.5" y1="200.5" x2="240.5" y2="210.5"/>
<line class="st0" x1="230.5" y1="210.5" x2="240.5" y2="210.5"/>
<line class="st0" x1="240.5" y1="210.5" x2="250.5" y2="210.5"/>
<line class="st0" x1="260.5" y1="200.5" x2="260.5" y2="210.5"/>
<line class="st0" x1="270.5" y1="200.5" x2="270.5" y2="210.5"/>
<line class="st0" x1="10.5" y1="210.5" x2="10.5" y2="220.5"/>
<line class="st0" x1="0.5" y1="220.5" x2="10.5" y2="220.5"/>
<line class="st0" x1="40.5" y1="210.5" x2="40.5" y2="220.5"/>
<line class="st0" x1="30.5" y1="220.5" x2="40.5" y2="220.5"/>
<line class="st0" x1="60.5" y1="210.5" x2="60.5" y2="220.5"/>
<line class="st0" x1="50.5" y1="220.5" x2="60.5" y2="220.5"/>
<line class="st0" x1="60.5" y1="220.5" x2="70.5" y2="220.5"/>
<line class="st0" x1="70.5" y1="220.5" x2="80.5" y2="220.5"/>
<line class="st0" x1="80.5" y1="220.5" x2="90.5" y2="220.5"/>
<line class="st0" x1="100.5" y1="210.5" x2="100.5" y2="220.5"/>
<line class="st0" x1="100.5" y1="220.5" x2="110.5" y2="220.5"/>
<line class="st0" x1="120.5" y1="210.5" x2="120.5" y2="220.5"/>
<line class="st0" x1="130.5" y1="220.5" x2="140.5" y2="220.5"/>
<line class="st0" x1="150.5" y1="210.5" x2="150.5" y2="220.5"/>
<line class="st0" x1="140.5" y1="220.5" x2="150.5" y2="220.5"/>
<line class="st0" x1="160.5" y1="210.5" x2="160.5" y2="220.5"/>
<line class="st0" x1="150.5" y1="220.5" x2="160.5" y2="220.5"/>
<line class="st0" x1="170.5" y1="210.5" x2="170.5" y2="220.5"/>
<line class="st0" x1="180.5" y1="210.5" x2="180.5" y2="220.5"/>
<line class="st0" x1="180.5" y1="220.5" x2="190.5" y2="220.5"/>
<line class="st0" x1="190.5" y1="220.5" x2="200.5" y2="220.5"/>
<line class="st0" x1="200.5" y1="220.5" x2="210.5" y2="220.5"/>
<line class="st0" x1="220.5" y1="210.5" x2="220.5" y2="220.5"/>
<line class="st0" x1="240.5" y1="210.5" x2="240.5" y2="220.5"/>
<line class="st0" x1="260.5" y1="210.5" x2="260.5" y2="220.5"/>
<line class="st0" x1="250.5" y1="220.5" x2="260.5" y2="220.5"/>
<line class="st0" x1="260.5" y1="220.5" x2="270.5" y2="220.5"/>
<line class="st0" x1="0.5" y1="230.5" x2="10.5" y2="230.5"/>
<line class="st0" x1="20.5" y1="220.5" x2="20.5" y2="230.5"/>
<line class="st0" x1="10.5" y1="230.5" x2="20.5" y2="230.5"/>
<line class="st0" x1="30.5" y1="220.5" x2="30.5" y2="230.5"/>
<line class="st0" x1="50.5" y1="220.5" x2="50.5" y2="230.5"/>
<line class="st0" x1="40.5" y1="230.5" x2="50.5" y2="230.5"/>
<line class="st0" x1="60.5" y1="230.5" x2="70.5" y2="230.5"/>
<line class="st0" x1="70.5" y1="230.5" x2="80.5" y2="230.5"/>
<line class="st0" x1="90.5" y1="220.5" x2="90.5" y2="230.5"/>
<line class="st0" x1="90.5" y1="230.5" x2="100.5" y2="230.5"/>
<line class="st0" x1="110.5" y1="220.5" x2="110.5" y2="230.5"/>
<line class="st0" x1="100.5" y1="230.5" x2="110.5" y2="230.5"/>
<line class="st0" x1="130.5" y1="220.5" x2="130.5" y2="230.5"/>
<line class="st0" x1="120.5" y1="230.5" x2="130.5" y2="230.5"/>
<line class="st0" x1="140.5" y1="220.5" x2="140.5" y2="230.5"/>
<line class="st0" x1="150.5" y1="230.5" x2="160.5" y2="230.5"/>
<line class="st0" x1="170.5" y1="220.5" x2="170.5" y2="230.5"/>
<line class="st0" x1="160.5" y1="230.5" x2="170.5" y2="230.5"/>
<line class="st0" x1="190.5" y1="220.5" x2="190.5" y2="230.5"/>
<line class="st0" x1="210.5" y1="220.5" x2="210.5" y2="230.5"/>
<line class="st0" x1="200.5" y1="230.5" x2="210.5" y2="230.5"/>
<line class="st0" x1="210.5" y1="230.5" x2="220.5" y2="230.5"/>
<line class="st0" x1="230.5" y1="220.5" x2="230.5" y2="230.5"/>
<line class="st0" x1="220.5" y1="230.5" x2="230.5" y2="230.5"/>
<line class="st0" x1="230.5" y1="230.5" x2="240.5" y2="230.5"/>
<line class="st0" x1="250.5" y1="220.5" x2="250.5" y2="230.5"/>
<line class="st0" x1="260.5" y1="230.5" x2="270.5" y2="230.5"/>
</svg>